<?xml version="1.0" encoding="UTF-8"?>
<svg version="1.1" xmlns="http://www.w3.org/2000/svg" width="512" height="512">
<path d="M0 0 C3.45709424 1.15236475 3.81399875 1.80126918 5.73291016 4.75585938 C6.259039 5.55682037 6.78516785 6.35778137 7.32723999 7.18301392 C7.89214142 8.06105682 8.45704285 8.93909973 9.0390625 9.84375 C9.632565 10.75232758 10.2260675 11.66090515 10.83755493 12.59701538 C12.11118126 14.54802619 13.38139752 16.50126647 14.64855957 18.45648193 C16.62583959 21.50129289 18.61850681 24.53545139 20.61621094 27.56689453 C26.21580665 36.07363599 31.78945268 44.58368478 37.1015625 53.2734375 C45.55560111 67.44397253 45.55560111 67.44397253 59.75097656 74.63842773 C61.14365859 74.92735584 62.53822928 75.20733488 63.93457031 75.47802734 C68.74367186 76.69337712 73.09198198 79.45150399 77.4375 81.77734375 C85.60394732 84.5800828 95.4655281 80.99983965 103.73189354 79.30152702 C106.0227988 78.83115244 108.31473534 78.36613387 110.60700989 77.90248108 C117.11768808 76.58454412 123.62632325 75.25663643 130.13452148 73.92651367 C134.13151589 73.11000124 138.12962855 72.29915968 142.12844276 71.49160957 C143.64508769 71.18406713 145.16128031 70.874285 146.67699242 70.56217766 C148.79559014 70.12593601 150.91553011 69.69687539 153.03588867 69.26928711 C154.23896164 69.02359482 155.44203461 68.77790253 156.68156433 68.52476501 C159.85341424 68.02318052 162.79561297 67.90088463 166 68 C165.79733017 69.00367111 165.59466034 70.00734222 165.385849 71.04142761 C163.47712533 80.50035663 161.57850755 89.96126512 159.68976498 99.42420483 C158.71841924 104.2891307 157.74352712 109.15328943 156.76049805 114.01586914 C155.81195176 118.70855218 154.87276381 123.40301968 153.94003487 128.09887123 C153.5825421 129.89008617 153.22168245 131.68063255 152.85740471 133.47047997 C152.34774778 135.97757516 151.85011477 138.48678059 151.35522461 140.99682617 C151.20201752 141.73625961 151.04881042 142.47569305 150.89096069 143.23753357 C149.79079594 148.92132317 150.28907399 152.82951611 152.70703125 158.00390625 C153.04669922 158.74576172 153.38636719 159.48761719 153.73632812 160.25195312 C154.44122168 161.76536344 155.14692077 163.27839888 155.85351562 164.79101562 C156.19705078 165.54189453 156.54058594 166.29277344 156.89453125 167.06640625 C157.26408936 167.85563477 157.63364746 168.64486328 158.0144043 169.45800781 C159 172 159 172 159.44848633 174.76855469 C161.00352394 182.93810193 165.2962892 186.37943976 171.84765625 190.8828125 C175.55050341 193.35432137 179.30202829 195.74244166 183.0625 198.125 C185.01612697 199.39619046 186.96770038 200.67054233 188.91723633 201.94799805 C192.78975114 204.47975489 196.67234591 206.99462181 200.56542969 209.49462891 C207.2529453 213.79516856 213.85828471 218.21445958 220.45626831 222.65057373 C223.16687565 224.46981369 225.88613002 226.27586889 228.60546875 228.08203125 C229.89167114 228.93631714 229.89167114 228.93631714 231.20385742 229.80786133 C231.79658447 230.20126709 232.38931152 230.59467285 233 231 C231.84763525 234.45709424 231.19873082 234.81399875 228.24414062 236.73291016 C227.04269913 237.52210342 227.04269913 237.52210342 225.81698608 238.32723999 C224.93894318 238.89214142 224.06090027 239.45704285 223.15625 240.0390625 C222.24767242 240.632565 221.33909485 241.2260675 220.40298462 241.83755493 C218.45197381 243.11118126 216.49873353 244.38139752 214.54351807 245.64855957 C211.49870711 247.62583959 208.46454861 249.61850681 205.43310547 251.61621094 C196.92636401 257.21580665 188.41631522 262.78945268 179.7265625 268.1015625 C165.54854253 276.55523443 165.54854253 276.55523443 158.36376953 290.75976562 C158.07627308 292.15553019 157.7970183 293.55301982 157.52636719 294.95214844 C156.32021351 299.64473519 153.50337479 303.86489932 151.125 308.046875 C147.60782686 316.90336408 152.95346407 330.11035922 154.8347683 339.27707481 C155.30436837 341.56731469 155.76939754 343.85844214 156.23323059 346.14985657 C157.55025406 352.65323904 158.87363619 359.15531001 160.20385742 365.65600586 C161.0223324 369.65743206 161.83432284 373.66012844 162.64220619 377.66370583 C162.95030419 379.183712 163.26092993 380.70320806 163.57411766 382.22217369 C164.00887959 384.33142005 164.43542715 386.44217119 164.86010742 388.5534668 C165.22745247 390.35330269 165.22745247 390.35330269 165.60221863 392.1894989 C166 395 166 395 165 397 C164.01107758 396.79733017 163.02215515 396.59466034 162.00326538 396.385849 C152.67733878 394.47604047 143.34919053 392.57744443 134.01875877 390.68976498 C129.22211331 389.71896143 124.42633362 388.7442434 119.63232422 387.76049805 C115.00467625 386.81104176 110.37503002 385.87197512 105.74382401 384.94003487 C103.97847219 384.58290374 102.21386851 384.22205336 100.45005417 383.85740471 C97.97688946 383.34677152 95.50138009 382.84950169 93.02490234 382.35522461 C92.29841492 382.20201752 91.57192749 382.04881042 90.82342529 381.89096069 C84.95677147 380.74366868 80.28691185 381.16863128 74.8984375 383.70703125 C74.15980469 384.04669922 73.42117188 384.38636719 72.66015625 384.73632812 C71.90605469 385.09146484 71.15195312 385.44660156 70.375 385.8125 C68.88562759 386.5125313 67.39336832 387.20644997 65.8984375 387.89453125 C64.724021 388.44886841 64.724021 388.44886841 63.52587891 389.0144043 C61 390 61 390 58.23583984 390.44848633 C50.06380566 392.00373889 46.62174766 396.2940511 42.1171875 402.84765625 C39.64569337 406.55051315 37.25755835 410.30202828 34.875 414.0625 C33.60380954 416.01612697 32.32945767 417.96770038 31.05200195 419.91723633 C28.52024511 423.78975114 26.00537819 427.67234591 23.50537109 431.56542969 C19.20483144 438.2529453 14.78554042 444.85828471 10.34942627 451.45626831 C8.53018631 454.16687565 6.72413111 456.88613002 4.91796875 459.60546875 C4.06368286 460.89167114 4.06368286 460.89167114 3.19213867 462.20385742 C2.79873291 462.79658447 2.40532715 463.38931152 2 464 C-1.45709424 462.84763525 -1.81399875 462.19873082 -3.73291016 459.24414062 C-4.25906418 458.44316956 -4.7852182 457.64219849 -5.32731628 456.81695557 C-5.89219254 455.93892273 -6.45706879 455.06088989 -7.0390625 454.15625 C-7.63233841 453.24776306 -8.22561432 452.33927612 -8.83686829 451.40325928 C-10.11019642 449.4522945 -11.38018592 447.49914748 -12.64718628 445.54406738 C-14.62718745 442.49663328 -16.62441696 439.46121472 -18.62719727 436.42871094 C-24.20613923 427.96837959 -29.76354487 419.51925692 -34.92578125 410.796875 C-41.95516422 399.09326491 -47.57155858 391.71759313 -61.16577148 388.00488281 C-62.91906621 387.57664159 -64.67625393 387.16401848 -66.43701172 386.76757812 C-69.22681096 385.93207338 -71.35516924 384.6969083 -73.84765625 383.203125 C-77.89431232 381.09422413 -80.30008272 380.84182334 -84.77197266 381.65869141 C-85.91878006 381.86240356 -87.06558746 382.06611572 -88.24714661 382.27600098 C-90.10480904 382.63438049 -90.10480904 382.63438049 -92 383 C-93.28633835 383.24117554 -94.5726767 383.48235107 -95.897995 383.73083496 C-100.20416694 384.54702676 -104.50240877 385.40166093 -108.80078125 386.2578125 C-110.37399139 386.56907665 -111.94724976 386.88009717 -113.52055359 387.19088745 C-117.6160314 388.00057427 -121.71085567 388.8135186 -125.80554199 389.62719727 C-130.00212489 390.46050617 -134.1993322 391.29065783 -138.39648438 392.12109375 C-146.59826255 393.74434685 -154.79935142 395.37104983 -163 397 C-164.57496742 393.85006516 -163.32952916 390.82662281 -162.62890625 387.50854492 C-162.47138885 386.73599869 -162.31387146 385.96345245 -162.15158081 385.16749573 C-161.8079916 383.48629361 -161.46134049 381.80571508 -161.11203003 380.12569237 C-160.55959723 377.46649593 -160.01599585 374.80563465 -159.47485352 372.14411926 C-157.93424062 364.5758394 -156.37643614 357.0111179 -154.81542969 349.44702148 C-153.86187113 344.82332866 -152.91769701 340.19779584 -151.97897339 335.57106972 C-151.61907977 333.80766985 -151.25543317 332.04503163 -150.88796997 330.28319359 C-150.37362011 327.81703731 -149.87112402 325.34873196 -149.37109375 322.87963867 C-149.21631561 322.15269806 -149.06153748 321.42575745 -148.90206909 320.67678833 C-147.77824329 315.02736855 -148.30241779 311.14192837 -150.70703125 305.99609375 C-151.04669922 305.25423828 -151.38636719 304.51238281 -151.73632812 303.74804688 C-152.44122168 302.23463656 -153.14692077 300.72160112 -153.85351562 299.20898438 C-154.19705078 298.45810547 -154.54058594 297.70722656 -154.89453125 296.93359375 C-155.26408936 296.14436523 -155.63364746 295.35513672 -156.0144043 294.54199219 C-157 292 -157 292 -157.44848633 289.23144531 C-159.00352394 281.06189807 -163.2962892 277.62056024 -169.84765625 273.1171875 C-173.55050341 270.64567863 -177.30202829 268.25755834 -181.0625 265.875 C-183.01612697 264.60380954 -184.96770038 263.32945767 -186.91723633 262.05200195 C-190.78975114 259.52024511 -194.67234591 257.00537819 -198.56542969 254.50537109 C-205.2529453 250.20483144 -211.85828471 245.78554042 -218.45626831 241.34942627 C-221.16687565 239.53018631 -223.88613002 237.72413111 -226.60546875 235.91796875 C-227.89167114 235.06368286 -227.89167114 235.06368286 -229.20385742 234.19213867 C-230.092948 233.60203003 -230.092948 233.60203003 -231 233 C-229.84763525 229.54290576 -229.19873082 229.18600125 -226.24414062 227.26708984 C-225.44316956 226.74093582 -224.64219849 226.2147818 -223.81695557 225.67268372 C-222.93892273 225.10780746 -222.06088989 224.54293121 -221.15625 223.9609375 C-219.79351959 223.07102364 -219.79351959 223.07102364 -218.40325928 222.16313171 C-216.4522945 220.88980358 -214.49914748 219.61981408 -212.54406738 218.35281372 C-209.49663328 216.37281255 -206.46121472 214.37558304 -203.42871094 212.37280273 C-194.96837959 206.79386077 -186.51925692 201.23645513 -177.796875 196.07421875 C-166.09326491 189.04483578 -158.71759313 183.42844142 -155.00488281 169.83422852 C-154.57664159 168.08093379 -154.16401848 166.32374607 -153.76757812 164.56298828 C-152.93207338 161.77318904 -151.6969083 159.64483076 -150.203125 157.15234375 C-148.09125809 153.10147861 -147.84215729 150.68749174 -148.65649414 146.20996094 C-148.86019623 145.06321396 -149.06389832 143.91646698 -149.27377319 142.73497009 C-149.51342804 141.50242996 -149.75308289 140.26988983 -150 139 C-150.24344147 137.73100357 -150.48688293 136.46200714 -150.73770142 135.15455627 C-151.41634292 131.67309558 -152.12167889 128.19747631 -152.8347683 124.72292519 C-153.30436837 122.43268531 -153.76939754 120.14155786 -154.23323059 117.85014343 C-155.55025406 111.34676096 -156.87363619 104.84468999 -158.20385742 98.34399414 C-159.0223324 94.34256794 -159.83432284 90.33987156 -160.64220619 86.33629417 C-160.95030419 84.816288 -161.26092993 83.29679194 -161.57411766 81.77782631 C-162.00887959 79.66857995 -162.43542715 77.55782881 -162.86010742 75.4465332 C-163.10500412 74.24664261 -163.34990082 73.04675201 -163.60221863 71.8105011 C-164 69 -164 69 -163 67 C-161.99632889 67.20266983 -160.99265778 67.40533966 -159.95857239 67.614151 C-150.49964337 69.52287467 -141.03873488 71.42149245 -131.57579517 73.31023502 C-126.7108693 74.28158076 -121.84671057 75.25647288 -116.98413086 76.23950195 C-112.29144782 77.18804824 -107.59698032 78.12723619 -102.90112877 79.05996513 C-101.10991383 79.4174579 -99.31936745 79.77831755 -97.52952003 80.14259529 C-95.02242484 80.65225222 -92.51321941 81.14988523 -90.00317383 81.64477539 C-88.89402367 81.87458603 -88.89402367 81.87458603 -87.76246643 82.10903931 C-82.07867683 83.20920406 -78.17048389 82.71092601 -72.99609375 80.29296875 C-72.25423828 79.95330078 -71.51238281 79.61363281 -70.74804688 79.26367188 C-69.23463656 78.55877832 -67.72160112 77.85307923 -66.20898438 77.14648438 C-65.45810547 76.80294922 -64.70722656 76.45941406 -63.93359375 76.10546875 C-63.14436523 75.73591064 -62.35513672 75.36635254 -61.54199219 74.9855957 C-59 74 -59 74 -56.23144531 73.55151367 C-48.06189807 71.99647606 -44.62056024 67.7037108 -40.1171875 61.15234375 C-37.64567863 57.44949659 -35.25755834 53.69797171 -32.875 49.9375 C-31.60380954 47.98387303 -30.32945767 46.03229962 -29.05200195 44.08276367 C-26.52024511 40.21024886 -24.00537819 36.32765409 -21.50537109 32.43457031 C-17.20483144 25.7470547 -12.78554042 19.14171529 -8.34942627 12.54373169 C-6.53018631 9.83312435 -4.72413111 7.11386998 -2.91796875 4.39453125 C-2.06368286 3.10832886 -2.06368286 3.10832886 -1.19213867 1.79614258 C-0.60203003 0.907052 -0.60203003 0.907052 0 0 Z " fill="#F58110" transform="translate(255,24)"/>
<path d="M0 0 C3.45709424 1.15236475 3.81399875 1.80126918 5.73291016 4.75585938 C6.259039 5.55682037 6.78516785 6.35778137 7.32723999 7.18301392 C7.89214142 8.06105682 8.45704285 8.93909973 9.0390625 9.84375 C9.632565 10.75232758 10.2260675 11.66090515 10.83755493 12.59701538 C12.11118126 14.54802619 13.38139752 16.50126647 14.64855957 18.45648193 C16.62583959 21.50129289 18.61850681 24.53545139 20.61621094 27.56689453 C26.21580665 36.07363599 31.78945268 44.58368478 37.1015625 53.2734375 C45.55560111 67.44397253 45.55560111 67.44397253 59.75097656 74.63842773 C61.14365859 74.92735584 62.53822928 75.20733488 63.93457031 75.47802734 C68.74367186 76.69337712 73.09198198 79.45150399 77.4375 81.77734375 C85.60394732 84.5800828 95.4655281 80.99983965 103.73189354 79.30152702 C106.0227988 78.83115244 108.31473534 78.36613387 110.60700989 77.90248108 C117.11768808 76.58454412 123.62632325 75.25663643 130.13452148 73.92651367 C134.13151589 73.11000124 138.12962855 72.29915968 142.12844276 71.49160957 C143.64508769 71.18406713 145.16128031 70.874285 146.67699242 70.56217766 C148.79559014 70.12593601 150.91553011 69.69687539 153.03588867 69.26928711 C154.23896164 69.02359482 155.44203461 68.77790253 156.68156433 68.52476501 C159.85341424 68.02318052 162.79561297 67.90088463 166 68 C165.79733017 69.00367111 165.59466034 70.00734222 165.385849 71.04142761 C163.47712533 80.50035663 161.57850755 89.96126512 159.68976498 99.42420483 C158.71841924 104.2891307 157.74352712 109.15328943 156.76049805 114.01586914 C155.81195176 118.70855218 154.87276381 123.40301968 153.94003487 128.09887123 C153.5825421 129.89008617 153.22168245 131.68063255 152.85740471 133.47047997 C152.34774778 135.97757516 151.85011477 138.48678059 151.35522461 140.99682617 C151.20201752 141.73625961 151.04881042 142.47569305 150.89096069 143.23753357 C149.79079594 148.92132317 150.28907399 152.82951611 152.70703125 158.00390625 C153.04669922 158.74576172 153.38636719 159.48761719 153.73632812 160.25195312 C154.44122168 161.76536344 155.14692077 163.27839888 155.85351562 164.79101562 C156.19705078 165.54189453 156.54058594 166.29277344 156.89453125 167.06640625 C157.26408936 167.85563477 157.63364746 168.64486328 158.0144043 169.45800781 C159 172 159 172 159.44848633 174.76855469 C161.00352394 182.93810193 165.2962892 186.37943976 171.84765625 190.8828125 C175.55050341 193.35432137 179.30202829 195.74244166 183.0625 198.125 C185.01612697 199.39619046 186.96770038 200.67054233 188.91723633 201.94799805 C192.78975114 204.47975489 196.67234591 206.99462181 200.56542969 209.49462891 C207.2529453 213.79516856 213.85828471 218.21445958 220.45626831 222.65057373 C223.16687565 224.46981369 225.88613002 226.27586889 228.60546875 228.08203125 C229.89167114 228.93631714 229.89167114 228.93631714 231.20385742 229.80786133 C231.79658447 230.20126709 232.38931152 230.59467285 233 231 C231.84763525 234.45709424 231.19873082 234.81399875 228.24414062 236.73291016 C227.04269913 237.52210342 227.04269913 237.52210342 225.81698608 238.32723999 C224.93894318 238.89214142 224.06090027 239.45704285 223.15625 240.0390625 C222.24767242 240.632565 221.33909485 241.2260675 220.40298462 241.83755493 C218.45197381 243.11118126 216.49873353 244.38139752 214.54351807 245.64855957 C211.49870711 247.62583959 208.46454861 249.61850681 205.43310547 251.61621094 C196.92636401 257.21580665 188.41631522 262.78945268 179.7265625 268.1015625 C165.54854253 276.55523443 165.54854253 276.55523443 158.36376953 290.75976562 C158.07627308 292.15553019 157.7970183 293.55301982 157.52636719 294.95214844 C156.32021351 299.64473519 153.50337479 303.86489932 151.125 308.046875 C147.60782686 316.90336408 152.95346407 330.11035922 154.8347683 339.27707481 C155.30436837 341.56731469 155.76939754 343.85844214 156.23323059 346.14985657 C157.55025406 352.65323904 158.87363619 359.15531001 160.20385742 365.65600586 C161.0223324 369.65743206 161.83432284 373.66012844 162.64220619 377.66370583 C162.95030419 379.183712 163.26092993 380.70320806 163.57411766 382.22217369 C164.00887959 384.33142005 164.43542715 386.44217119 164.86010742 388.5534668 C165.22745247 390.35330269 165.22745247 390.35330269 165.60221863 392.1894989 C166 395 166 395 165 397 C164.01107758 396.79733017 163.02215515 396.59466034 162.00326538 396.385849 C152.67733878 394.47604047 143.34919053 392.57744443 134.01875877 390.68976498 C129.22211331 389.71896143 124.42633362 388.7442434 119.63232422 387.76049805 C115.00467625 386.81104176 110.37503002 385.87197512 105.74382401 384.94003487 C103.97847219 384.58290374 102.21386851 384.22205336 100.45005417 383.85740471 C97.97688946 383.34677152 95.50138009 382.84950169 93.02490234 382.35522461 C92.29841492 382.20201752 91.57192749 382.04881042 90.82342529 381.89096069 C84.95677147 380.74366868 80.28691185 381.16863128 74.8984375 383.70703125 C74.15980469 384.04669922 73.42117188 384.38636719 72.66015625 384.73632812 C71.90605469 385.09146484 71.15195312 385.44660156 70.375 385.8125 C68.88562759 386.5125313 67.39336832 387.20644997 65.8984375 387.89453125 C64.724021 388.44886841 64.724021 388.44886841 63.52587891 389.0144043 C61 390 61 390 58.23583984 390.44848633 C50.06380566 392.00373889 46.62174766 396.2940511 42.1171875 402.84765625 C39.64569337 406.55051315 37.25755835 410.30202828 34.875 414.0625 C33.60380954 416.01612697 32.32945767 417.96770038 31.05200195 419.91723633 C28.52024511 423.78975114 26.00537819 427.67234591 23.50537109 431.56542969 C19.20483144 438.2529453 14.78554042 444.85828471 10.34942627 451.45626831 C8.53018631 454.16687565 6.72413111 456.88613002 4.91796875 459.60546875 C4.06368286 460.89167114 4.06368286 460.89167114 3.19213867 462.20385742 C2.79873291 462.79658447 2.40532715 463.38931152 2 464 C-1.45709424 462.84763525 -1.81399875 462.19873082 -3.73291016 459.24414062 C-4.25906418 458.44316956 -4.7852182 457.64219849 -5.32731628 456.81695557 C-5.89219254 455.93892273 -6.45706879 455.06088989 -7.0390625 454.15625 C-7.63233841 453.24776306 -8.22561432 452.33927612 -8.83686829 451.40325928 C-10.11019642 449.4522945 -11.38018592 447.49914748 -12.64718628 445.54406738 C-14.62718745 442.49663328 -16.62441696 439.46121472 -18.62719727 436.42871094 C-24.20613923 427.96837959 -29.76354487 419.51925692 -34.92578125 410.796875 C-41.95516422 399.09326491 -47.57155858 391.71759313 -61.16577148 388.00488281 C-62.91906621 387.57664159 -64.67625393 387.16401848 -66.43701172 386.76757812 C-69.22681096 385.93207338 -71.35516924 384.6969083 -73.84765625 383.203125 C-77.89431232 381.09422413 -80.30008272 380.84182334 -84.77197266 381.65869141 C-85.91878006 381.86240356 -87.06558746 382.06611572 -88.24714661 382.27600098 C-90.10480904 382.63438049 -90.10480904 382.63438049 -92 383 C-93.28633835 383.24117554 -94.5726767 383.48235107 -95.897995 383.73083496 C-100.20416694 384.54702676 -104.50240877 385.40166093 -108.80078125 386.2578125 C-110.37399139 386.56907665 -111.94724976 386.88009717 -113.52055359 387.19088745 C-117.6160314 388.00057427 -121.71085567 388.8135186 -125.80554199 389.62719727 C-130.00212489 390.46050617 -134.1993322 391.29065783 -138.39648438 392.12109375 C-146.59826255 393.74434685 -154.79935142 395.37104983 -163 397 C-164.57496742 393.85006516 -163.32952916 390.82662281 -162.62890625 387.50854492 C-162.47138885 386.73599869 -162.31387146 385.96345245 -162.15158081 385.16749573 C-161.8079916 383.48629361 -161.46134049 381.80571508 -161.11203003 380.12569237 C-160.55959723 377.46649593 -160.01599585 374.80563465 -159.47485352 372.14411926 C-157.93424062 364.5758394 -156.37643614 357.0111179 -154.81542969 349.44702148 C-153.86187113 344.82332866 -152.91769701 340.19779584 -151.97897339 335.57106972 C-151.61907977 333.80766985 -151.25543317 332.04503163 -150.88796997 330.28319359 C-150.37362011 327.81703731 -149.87112402 325.34873196 -149.37109375 322.87963867 C-149.21631561 322.15269806 -149.06153748 321.42575745 -148.90206909 320.67678833 C-147.77824329 315.02736855 -148.30241779 311.14192837 -150.70703125 305.99609375 C-151.04669922 305.25423828 -151.38636719 304.51238281 -151.73632812 303.74804688 C-152.44122168 302.23463656 -153.14692077 300.72160112 -153.85351562 299.20898438 C-154.19705078 298.45810547 -154.54058594 297.70722656 -154.89453125 296.93359375 C-155.26408936 296.14436523 -155.63364746 295.35513672 -156.0144043 294.54199219 C-157 292 -157 292 -157.44848633 289.23144531 C-159.00352394 281.06189807 -163.2962892 277.62056024 -169.84765625 273.1171875 C-173.55050341 270.64567863 -177.30202829 268.25755834 -181.0625 265.875 C-183.01612697 264.60380954 -184.96770038 263.32945767 -186.91723633 262.05200195 C-190.78975114 259.52024511 -194.67234591 257.00537819 -198.56542969 254.50537109 C-205.2529453 250.20483144 -211.85828471 245.78554042 -218.45626831 241.34942627 C-221.16687565 239.53018631 -223.88613002 237.72413111 -226.60546875 235.91796875 C-227.89167114 235.06368286 -227.89167114 235.06368286 -229.20385742 234.19213867 C-230.092948 233.60203003 -230.092948 233.60203003 -231 233 C-229.84763525 229.54290576 -229.19873082 229.18600125 -226.24414062 227.26708984 C-225.44316956 226.74093582 -224.64219849 226.2147818 -223.81695557 225.67268372 C-222.93892273 225.10780746 -222.06088989 224.54293121 -221.15625 223.9609375 C-219.79351959 223.07102364 -219.79351959 223.07102364 -218.40325928 222.16313171 C-216.4522945 220.88980358 -214.49914748 219.61981408 -212.54406738 218.35281372 C-209.49663328 216.37281255 -206.46121472 214.37558304 -203.42871094 212.37280273 C-194.96837959 206.79386077 -186.51925692 201.23645513 -177.796875 196.07421875 C-166.09326491 189.04483578 -158.71759313 183.42844142 -155.00488281 169.83422852 C-154.57664159 168.08093379 -154.16401848 166.32374607 -153.76757812 164.56298828 C-152.93207338 161.77318904 -151.6969083 159.64483076 -150.203125 157.15234375 C-148.09125809 153.10147861 -147.84215729 150.68749174 -148.65649414 146.20996094 C-148.86019623 145.06321396 -149.06389832 143.91646698 -149.27377319 142.73497009 C-149.51342804 141.50242996 -149.75308289 140.26988983 -150 139 C-150.24344147 137.73100357 -150.48688293 136.46200714 -150.73770142 135.15455627 C-151.41634292 131.67309558 -152.12167889 128.19747631 -152.8347683 124.72292519 C-153.30436837 122.43268531 -153.76939754 120.14155786 -154.23323059 117.85014343 C-155.55025406 111.34676096 -156.87363619 104.84468999 -158.20385742 98.34399414 C-159.0223324 94.34256794 -159.83432284 90.33987156 -160.64220619 86.33629417 C-160.95030419 84.816288 -161.26092993 83.29679194 -161.57411766 81.77782631 C-162.00887959 79.66857995 -162.43542715 77.55782881 -162.86010742 75.4465332 C-163.10500412 74.24664261 -163.34990082 73.04675201 -163.60221863 71.8105011 C-164 69 -164 69 -163 67 C-161.99632889 67.20266983 -160.99265778 67.40533966 -159.95857239 67.614151 C-150.49964337 69.52287467 -141.03873488 71.42149245 -131.57579517 73.31023502 C-126.7108693 74.28158076 -121.84671057 75.25647288 -116.98413086 76.23950195 C-112.29144782 77.18804824 -107.59698032 78.12723619 -102.90112877 79.05996513 C-101.10991383 79.4174579 -99.31936745 79.77831755 -97.52952003 80.14259529 C-95.02242484 80.65225222 -92.51321941 81.14988523 -90.00317383 81.64477539 C-88.89402367 81.87458603 -88.89402367 81.87458603 -87.76246643 82.10903931 C-82.07867683 83.20920406 -78.17048389 82.71092601 -72.99609375 80.29296875 C-72.25423828 79.95330078 -71.51238281 79.61363281 -70.74804688 79.26367188 C-69.23463656 78.55877832 -67.72160112 77.85307923 -66.20898438 77.14648438 C-65.45810547 76.80294922 -64.70722656 76.45941406 -63.93359375 76.10546875 C-63.14436523 75.73591064 -62.35513672 75.36635254 -61.54199219 74.9855957 C-59 74 -59 74 -56.23144531 73.55151367 C-48.06189807 71.99647606 -44.62056024 67.7037108 -40.1171875 61.15234375 C-37.64567863 57.44949659 -35.25755834 53.69797171 -32.875 49.9375 C-31.60380954 47.98387303 -30.32945767 46.03229962 -29.05200195 44.08276367 C-26.52024511 40.21024886 -24.00537819 36.32765409 -21.50537109 32.43457031 C-17.20483144 25.7470547 -12.78554042 19.14171529 -8.34942627 12.54373169 C-6.53018631 9.83312435 -4.72413111 7.11386998 -2.91796875 4.39453125 C-2.06368286 3.10832886 -2.06368286 3.10832886 -1.19213867 1.79614258 C-0.60203003 0.907052 -0.60203003 0.907052 0 0 Z M-29 99 C-30.82144531 99.41765625 -30.82144531 99.41765625 -32.6796875 99.84375 C-66.36236633 107.96680768 -96.54514251 130.44033912 -114.6875 159.8125 C-121.78379085 171.60424817 -127.61269951 183.59617573 -131 197 C-131.18191895 197.70157227 -131.36383789 198.40314453 -131.55126953 199.12597656 C-138.10934211 225.1032615 -136.65145995 253.92802258 -127 279 C-126.74734375 279.65661621 -126.4946875 280.31323242 -126.234375 280.98974609 C-120.60609851 295.27080795 -113.11145909 308.40971691 -103 320 C-102.20207031 320.94230469 -101.40414062 321.88460937 -100.58203125 322.85546875 C-83.44161602 342.66217079 -59.40582594 357.56569843 -34 364 C-33.3090625 364.18191895 -32.618125 364.36383789 -31.90625 364.55126953 C2.5168969 373.38863559 39.30900191 367.30492905 69.94775391 349.70654297 C76.75553664 345.66533827 83.02605887 341.21171579 89 336 C89.94230469 335.20207031 90.88460937 334.40414062 91.85546875 333.58203125 C119.26944533 309.85839767 134.33441321 275.76478026 137 240 C137.7839802 225.19871959 136.83997046 211.32877867 133 197 C132.79632813 196.23880859 132.59265625 195.47761719 132.3828125 194.69335938 C122.73967403 160.07925433 98.96627013 130.70074928 67.828125 113.05859375 C38.94622318 97.27070399 3.19425081 90.4930909 -29 99 Z " fill="#F8CA3E" transform="translate(255,24)"/>
<path d="M0 0 C37.95443861 -0.53624796 68.83012067 6.8602658 96.86328125 33.74609375 C122.53343426 60.61392109 128.51098799 92.08889939 128 128 C122.72 128 117.44 128 112 128 C111.95101562 126.42992187 111.90203125 124.85984375 111.8515625 123.2421875 C110.74884761 90.90017809 104.22031487 64.00582734 80.07421875 40.66796875 C66.26198717 28.30346534 49.89375875 21.89864018 32 18 C31.23478027 17.82581543 30.46956055 17.65163086 29.68115234 17.47216797 C26.63415602 16.93557255 23.69768921 16.78617926 20.60546875 16.68359375 C18.80239258 16.62075195 18.80239258 16.62075195 16.96289062 16.55664062 C15.71701172 16.51732422 14.47113281 16.47800781 13.1875 16.4375 C11.92228516 16.39431641 10.65707031 16.35113281 9.35351562 16.30664062 C6.2357996 16.20075593 3.11791378 16.09989226 0 16 C0 10.72 0 5.44 0 0 Z " fill="#E57100" transform="translate(240,144)"/>
<path d="M0 0 C5.28 0 10.56 0 16 0 C16 5.28 16 10.56 16 16 C10.72 16 5.44 16 0 16 C0 10.72 0 5.44 0 0 Z " fill="#E57100" transform="translate(352,288)"/>
<path d="M0 0 C5.28 0 10.56 0 16 0 C16 5.28 16 10.56 16 16 C10.72 16 5.44 16 0 16 C0 10.72 0 5.44 0 0 Z " fill="#E57100" transform="translate(176,288)"/>
<path d="M0 0 C5.28 0 10.56 0 16 0 C16 5.28 16 10.56 16 16 C10.72 16 5.44 16 0 16 C0 10.72 0 5.44 0 0 Z " fill="#E57100" transform="translate(144,288)"/>
<path d="M0 0 C5.28 0 10.56 0 16 0 C16 5.28 16 10.56 16 16 C10.72 16 5.44 16 0 16 C0 10.72 0 5.44 0 0 Z " fill="#E57100" transform="translate(144,256)"/>
</svg>
